<svg width="60" height="60" viewBox="0 0 60 60" fill="none" xmlns="http://www.w3.org/2000/svg">
<g clip-path="url(#clip0)">
<path d="M12.7716 30.572C12.255 30.572 11.8361 30.1546 11.8339 29.6386L11.8184 25.92C11.8168 25.4023 12.2341 24.9807 12.7523 24.9785H12.7561C13.2727 24.9785 13.6916 25.3953 13.6938 25.9119L13.7093 29.63C13.7109 30.1477 13.2936 30.5693 12.7754 30.572C12.7743 30.572 12.7727 30.572 12.7716 30.572Z" fill="white" fill-opacity="0.87"/>
<path d="M46.4688 21.5623C45.9511 21.5623 45.5322 21.1444 45.5311 20.6267L45.5171 13.1267C45.0429 5.37139 37.1953 1.87486 29.6283 1.87486C22.0618 1.87486 14.2136 5.37139 13.7373 13.182L13.7255 20.6267C13.7244 21.1444 13.3054 21.5623 12.7878 21.5623C12.7872 21.5623 12.7872 21.5623 12.7861 21.5623C12.269 21.5617 11.8495 21.1406 11.8506 20.623L11.8645 13.123C12.4155 4.04048 21.1836 0 29.6283 0C38.0729 0 46.8411 4.04048 47.3904 13.0683L47.4059 20.623C47.407 21.1406 46.9875 21.5617 46.4704 21.5623C46.4693 21.5623 46.4693 21.5623 46.4688 21.5623Z" fill="white" fill-opacity="0.87"/>
<path d="M46.485 30.572C45.9679 30.572 45.5484 30.1531 45.5478 29.6359L45.5425 26.3304C45.5414 25.8127 45.9604 25.3927 46.478 25.3916H46.4796C46.9968 25.3916 47.4163 25.8106 47.4173 26.3277L47.4227 29.6327C47.4238 30.1509 47.0043 30.5709 46.4872 30.572C46.4861 30.572 46.4861 30.572 46.485 30.572Z" fill="white" fill-opacity="0.87"/>
<path d="M44.1421 28.0985C43.6743 28.0985 43.2693 27.7493 43.2119 27.2729C43.1502 26.759 43.5166 26.2918 44.031 26.2301C45.4403 26.06 46.503 24.86 46.503 23.4379C46.503 21.9718 45.4043 20.7675 43.9468 20.6366C43.4318 20.5899 43.0509 20.1345 43.0976 19.6184C43.1443 19.1029 43.611 18.7312 44.1158 18.7687C46.5453 18.9881 48.3784 20.995 48.3784 23.4379C48.3784 25.8079 46.6059 27.8088 44.2547 28.091C44.2172 28.0958 44.1796 28.0985 44.1421 28.0985Z" fill="white" fill-opacity="0.87"/>
<path d="M15.127 28.0993C15.0916 28.0993 15.0546 28.0977 15.0171 28.0929C12.6578 27.8177 10.8784 25.8162 10.8784 23.4377C10.8784 21.0274 12.757 18.9761 15.1555 18.7679C15.6581 18.7186 16.1259 19.1043 16.171 19.6209C16.2155 20.1364 15.8341 20.5908 15.3185 20.6353C13.8803 20.7603 12.7533 21.9914 12.7533 23.4377C12.7533 24.8646 13.8197 26.0657 15.2354 26.2309C15.7488 26.291 16.1178 26.7561 16.0572 27.2705C16.0014 27.748 15.597 28.0993 15.127 28.0993Z" fill="white" fill-opacity="0.87"/>
<path d="M15.5758 30.5716C15.0753 30.5716 14.6595 30.1751 14.6402 29.6698C14.6322 29.4686 14.6284 29.2653 14.6284 29.062V16.3548C14.6284 13.5401 16.9185 11.25 19.7332 11.25C19.8201 11.25 19.9065 11.2618 19.9896 11.2854L22.328 11.9501C27.1034 13.3067 32.1518 13.3078 36.9288 11.9501L39.2672 11.2854C39.3503 11.2613 39.4367 11.25 39.5236 11.25C42.3389 11.25 44.6284 13.5401 44.6284 16.3548V29.062C44.6284 29.2653 44.6246 29.4681 44.6166 29.6698C44.5973 30.1875 44.1579 30.6129 43.6435 30.57C43.1263 30.5506 42.7235 30.1151 42.7433 29.5974C42.7498 29.4198 42.7535 29.2417 42.7535 29.0626V16.3548C42.7535 14.6146 41.37 13.1914 39.6459 13.127L37.4417 13.7536C32.3294 15.2068 26.928 15.2068 21.8151 13.7536L19.6109 13.127C17.8868 13.1914 16.5033 14.6146 16.5033 16.3548V29.062C16.5033 29.2417 16.507 29.4204 16.5135 29.5979C16.5339 30.1151 16.131 30.5506 15.6133 30.5705C15.6005 30.5716 15.5892 30.5716 15.5758 30.5716Z" fill="white" fill-opacity="0.87"/>
<path d="M23.066 22.031C23.066 22.8078 22.4362 23.4376 21.6594 23.4376C20.8827 23.4376 20.2534 22.8078 20.2534 22.031C20.2534 21.2542 20.8827 20.625 21.6594 20.625C22.4362 20.625 23.066 21.2542 23.066 22.031Z" fill="white" fill-opacity="0.87"/>
<path d="M39.003 22.031C39.003 22.8078 38.3737 23.4376 37.597 23.4376C36.8202 23.4376 36.1904 22.8078 36.1904 22.031C36.1904 21.2542 36.8202 20.625 37.597 20.625C38.3737 20.625 39.003 21.2542 39.003 22.031Z" fill="white" fill-opacity="0.87"/>
<path d="M33.3786 30.9379H25.8786C25.3604 30.9379 24.9409 30.5179 24.9409 30.0002C24.9409 29.4825 25.3604 29.0625 25.8786 29.0625H33.3786C33.8968 29.0625 34.3158 29.4825 34.3158 30.0002C34.3158 30.5179 33.8968 30.9379 33.3786 30.9379Z" fill="white" fill-opacity="0.87"/>
<path d="M50.5078 60.0002H9.68617C8.27587 60.0002 7.12842 58.8527 7.12842 57.4424V31.6208C7.12842 30.2105 8.27587 29.0625 9.68617 29.0625H50.5078C51.9192 29.0625 53.0661 30.2105 53.0661 31.6208V57.4424C53.0661 58.8527 51.9186 60.0002 50.5078 60.0002ZM9.68617 30.9379C9.31013 30.9379 9.00328 31.2442 9.00328 31.6208V57.4424C9.00328 57.819 9.31013 58.1253 9.68617 58.1253H50.5078C50.8844 58.1253 51.1912 57.819 51.1912 57.4424V31.6208C51.1912 31.2442 50.8844 30.9379 50.5078 30.9379H9.68617Z" fill="white" fill-opacity="0.87"/>
<path d="M33.3783 44.5309C33.3783 46.343 31.9089 47.8123 30.0968 47.8123C28.2847 47.8123 26.8154 46.343 26.8154 44.5309C26.8154 42.7188 28.2847 41.25 30.0968 41.25C31.9089 41.25 33.3783 42.7188 33.3783 44.5309Z" fill="white" fill-opacity="0.87"/>
</g>
<defs>
<clipPath id="clip0">
<rect width="60" height="60" fill="white"/>
</clipPath>
</defs>
</svg>
